<svg width="102" height="103" viewBox="0 0 102 103" fill="none" xmlns="http://www.w3.org/2000/svg">
<rect width="102" height="103" fill="#090909"/>
<g filter="url(#filter0_d_4_23)">
<path d="M90.5 73C88.0147 73 86 70.9853 86 68.5V45.5C86 43.0147 88.0147 41 90.5 41V41C92.9853 41 95 43.0147 95 45.5V68.5C95 70.9853 92.9853 73 90.5 73V73Z" fill="#EAEAEA"/>
<circle cx="90.5" cy="32.5" r="4.5" fill="#EAEAEA"/>
<path fill-rule="evenodd" clip-rule="evenodd" d="M36.12 29.792C33.56 28.5973 30.4667 28 26.84 28C23.3413 28 20.3333 28.576 17.816 29.728C15.2987 30.9227 13.2507 32.544 11.672 34.592C10.0507 36.6827 8.87734 39.0933 8.152 41.824C7.384 44.5547 7 47.4773 7 50.592L7 69.376C7 71.7972 8.96278 73.76 11.384 73.76C13.8052 73.76 15.768 71.7972 15.768 69.376L15.768 50.592C15.768 48.7573 15.96 46.944 16.344 45.152C16.728 43.4027 17.3467 41.824 18.2 40.416C19.0107 39.008 20.1413 37.8773 21.592 37.024C23 36.2133 24.7707 35.808 26.904 35.808C28.9947 35.808 30.744 36.2133 32.152 37.024C33.56 37.8347 34.6907 38.944 35.544 40.352C36.3973 41.76 37.016 43.3387 37.4 45.088C37.7413 46.88 38 49.1227 38 51L37.9921 51.4301C37.9893 51.5845 37.9945 51.7371 38.0073 51.8877C38.0617 54.5751 38.422 57.1725 39.088 59.68C39.8133 62.368 40.944 64.7787 42.48 66.912C44.0587 69.0453 46.1067 70.7307 48.624 71.968C51.184 73.1627 54.2773 73.76 57.904 73.76C61.4027 73.76 64.4107 73.184 66.928 72.032C69.4453 70.8373 71.4933 69.216 73.072 67.168C74.6933 65.0773 75.8667 62.6667 76.592 59.936C77.36 57.2053 77.744 54.2827 77.744 51.168V45.384C77.744 42.9628 75.7812 41 73.36 41C70.9388 41 68.976 42.9628 68.976 45.384V51.168C68.976 53.0027 68.784 54.816 68.4 56.608C68.016 58.3573 67.3973 59.936 66.544 61.344C65.7333 62.752 64.6027 63.8827 63.152 64.736C61.744 65.5467 59.9733 65.952 57.84 65.952C55.7493 65.952 54 65.5467 52.592 64.736C51.184 63.9253 50.0533 62.816 49.2 61.408C48.3467 60 47.728 58.4213 47.344 56.672C47.0027 54.88 46.832 52.3773 46.832 50.5L46.7715 49.4055C46.7618 49.2311 46.7422 49.0599 46.7132 48.8922C46.6116 46.361 46.2592 44.351 45.656 42.08C44.9307 39.392 43.8 36.9813 42.264 34.848C40.6853 32.7147 38.6373 31.0293 36.12 29.792Z" fill="#EAEAEA"/>
<path d="M90.5 73C88.0147 73 86 70.9853 86 68.5V45.5C86 43.0147 88.0147 41 90.5 41V41C92.9853 41 95 43.0147 95 45.5V68.5C95 70.9853 92.9853 73 90.5 73V73Z" fill="#EAEAEA"/>
<path fill-rule="evenodd" clip-rule="evenodd" d="M36.12 29.792C33.56 28.5973 30.4667 28 26.84 28C23.3413 28 20.3333 28.576 17.816 29.728C15.2987 30.9227 13.2507 32.544 11.672 34.592C10.0507 36.6827 8.87734 39.0933 8.152 41.824C7.384 44.5547 7 47.4773 7 50.592L7 69.376C7 71.7972 8.96278 73.76 11.384 73.76C13.8052 73.76 15.768 71.7972 15.768 69.376L15.768 50.592C15.768 48.7573 15.96 46.944 16.344 45.152C16.728 43.4027 17.3467 41.824 18.2 40.416C19.0107 39.008 20.1413 37.8773 21.592 37.024C23 36.2133 24.7707 35.808 26.904 35.808C28.9947 35.808 30.744 36.2133 32.152 37.024C33.56 37.8347 34.6907 38.944 35.544 40.352C36.3973 41.76 37.016 43.3387 37.4 45.088C37.7413 46.88 38 49.1227 38 51L37.9921 51.4301C37.9893 51.5845 37.9945 51.7371 38.0073 51.8877C38.0617 54.5751 38.422 57.1725 39.088 59.68C39.8133 62.368 40.944 64.7787 42.48 66.912C44.0587 69.0453 46.1067 70.7307 48.624 71.968C51.184 73.1627 54.2773 73.76 57.904 73.76C61.4027 73.76 64.4107 73.184 66.928 72.032C69.4453 70.8373 71.4933 69.216 73.072 67.168C74.6933 65.0773 75.8667 62.6667 76.592 59.936C77.36 57.2053 77.744 54.2827 77.744 51.168V45.384C77.744 42.9628 75.7812 41 73.36 41C70.9388 41 68.976 42.9628 68.976 45.384V51.168C68.976 53.0027 68.784 54.816 68.4 56.608C68.016 58.3573 67.3973 59.936 66.544 61.344C65.7333 62.752 64.6027 63.8827 63.152 64.736C61.744 65.5467 59.9733 65.952 57.84 65.952C55.7493 65.952 54 65.5467 52.592 64.736C51.184 63.9253 50.0533 62.816 49.2 61.408C48.3467 60 47.728 58.4213 47.344 56.672C47.0027 54.88 46.832 52.3773 46.832 50.5L46.7715 49.4055C46.7618 49.2311 46.7422 49.0599 46.7132 48.8922C46.6116 46.361 46.2592 44.351 45.656 42.08C44.9307 39.392 43.8 36.9813 42.264 34.848C40.6853 32.7147 38.6373 31.0293 36.12 29.792Z" fill="#EAEAEA"/>
</g>
<defs>
<filter id="filter0_d_4_23" x="6.8" y="28" width="88.4" height="46.16" filterUnits="userSpaceOnUse" color-interpolation-filters="sRGB">
<feFlood flood-opacity="0" result="BackgroundImageFix"/>
<feColorMatrix in="SourceAlpha" type="matrix" values="0 0 0 0 0 0 0 0 0 0 0 0 0 0 0 0 0 0 127 0" result="hardAlpha"/>
<feOffset dy="0.2"/>
<feGaussianBlur stdDeviation="0.1"/>
<feComposite in2="hardAlpha" operator="out"/>
<feColorMatrix type="matrix" values="0 0 0 0 0.0352941 0 0 0 0 0.0352941 0 0 0 0 0.0352941 0 0 0 0.5 0"/>
<feBlend mode="normal" in2="BackgroundImageFix" result="effect1_dropShadow_4_23"/>
<feBlend mode="normal" in="SourceGraphic" in2="effect1_dropShadow_4_23" result="shape"/>
</filter>
</defs>
</svg>
